<svg xmlns="http://www.w3.org/2000/svg" width="105" height="33" viewBox="0 0 105 33">
  <g id="Group_15169" data-name="Group 15169" transform="translate(-1140 -872)">
    <g id="Group_15160" data-name="Group 15160">
      <rect id="Rectangle_7191" data-name="Rectangle 7191" width="105" height="33" transform="translate(1140 872)" fill="#fff"/>
      <g id="Group_15159" data-name="Group 15159" transform="translate(0 4.8)">
        <g id="_x31__stroke" transform="translate(1144 873.869)">
          <g id="Google">
            <rect id="Rectangle_7190" data-name="Rectangle 7190" width="20.542" height="20.542" transform="translate(0 0.269)" fill="none"/>
            <path id="Path_63075" data-name="Path 63075" d="M5.629,40.258a6.151,6.151,0,0,1,.313-1.932L2.434,35.648a10.477,10.477,0,0,0,0,9.216l3.5-2.683a6.156,6.156,0,0,1-.309-1.923" transform="translate(-1.144 -29.852)" fill="#fbbc05" fill-rule="evenodd"/>
            <path id="Path_63076" data-name="Path 63076" d="M17.29,4.257a6.029,6.029,0,0,1,3.836,1.372L24.157,2.6A10.413,10.413,0,0,0,7.938,5.8l3.507,2.678A6.141,6.141,0,0,1,17.29,4.257" transform="translate(-6.647)" fill="#ea4335" fill-rule="evenodd"/>
            <path id="Path_63077" data-name="Path 63077" d="M17.29,80.1a6.141,6.141,0,0,1-5.845-4.217L7.938,78.558a10.389,10.389,0,0,0,9.352,5.8,9.93,9.93,0,0,0,6.789-2.593L20.75,79.188a6.446,6.446,0,0,1-3.46.91" transform="translate(-6.647 -63.544)" fill="#34a853" fill-rule="evenodd"/>
            <path id="Path_63078" data-name="Path 63078" d="M75.4,54.256a8.619,8.619,0,0,0-.237-1.892H65.457v4.02h5.589a4.686,4.686,0,0,1-2.129,3.11l3.329,2.573A10.349,10.349,0,0,0,75.4,54.256" transform="translate(-54.815 -43.851)" fill="#4285f4" fill-rule="evenodd"/>
          </g>
        </g>
        <path id="See_all_courses" data-name="See all courses" d="M-20.455,0h-2.16l-.48-1.34a4.826,4.826,0,0,1-1.67,1.18,6.028,6.028,0,0,1-2.47.46,6.689,6.689,0,0,1-2.47-.46,5.536,5.536,0,0,1-2.04-1.39,6.705,6.705,0,0,1-1.38-2.35,9.95,9.95,0,0,1-.51-3.36,9.529,9.529,0,0,1,.5-3.23,6.348,6.348,0,0,1,1.42-2.33,5.846,5.846,0,0,1,2.21-1.41,8.4,8.4,0,0,1,2.89-.47,8.021,8.021,0,0,1,2.25.3,6.032,6.032,0,0,1,1.83.87,5.076,5.076,0,0,1,1.33,1.39,5.482,5.482,0,0,1,.75,1.86H-23.8a2.619,2.619,0,0,0-1.01-1.58,3.129,3.129,0,0,0-1.81-.5,3.455,3.455,0,0,0-1.4.28,2.826,2.826,0,0,0-1.11.89,4.58,4.58,0,0,0-.74,1.58,8.864,8.864,0,0,0-.27,2.35,9.1,9.1,0,0,0,.27,2.37,4.684,4.684,0,0,0,.75,1.62A2.926,2.926,0,0,0-28-2.35a3.352,3.352,0,0,0,1.4.29,4,4,0,0,0,1.29-.2,3.156,3.156,0,0,0,1.03-.57,2.566,2.566,0,0,0,.68-.88,2.574,2.574,0,0,0,.24-1.11V-5.84h-3.4V-8.02h6.3Zm1.546-5.24a5.417,5.417,0,0,1,1.43-4.08,5.625,5.625,0,0,1,4.07-1.38,5.632,5.632,0,0,1,4.06,1.38,5.4,5.4,0,0,1,1.44,4.08,5.55,5.55,0,0,1-1.43,4.13A5.552,5.552,0,0,1-13.409.3a5.58,5.58,0,0,1-4.03-1.41A5.461,5.461,0,0,1-18.909-5.24Zm3.22,0a4.47,4.47,0,0,0,.6,2.66,2.019,2.019,0,0,0,1.7.78,1.991,1.991,0,0,0,1.71-.77,4.65,4.65,0,0,0,.57-2.67,7.163,7.163,0,0,0-.15-1.6,2.776,2.776,0,0,0-.44-1.03,1.635,1.635,0,0,0-.72-.56,2.679,2.679,0,0,0-.99-.17,2.018,2.018,0,0,0-1.72.74A4.513,4.513,0,0,0-15.689-5.24Zm9.026,0a5.417,5.417,0,0,1,1.43-4.08,5.625,5.625,0,0,1,4.07-1.38A5.632,5.632,0,0,1,2.9-9.32a5.4,5.4,0,0,1,1.44,4.08,5.55,5.55,0,0,1-1.43,4.13A5.552,5.552,0,0,1-1.163.3a5.58,5.58,0,0,1-4.03-1.41A5.461,5.461,0,0,1-6.663-5.24Zm3.22,0a4.47,4.47,0,0,0,.6,2.66,2.019,2.019,0,0,0,1.7.78,1.991,1.991,0,0,0,1.71-.77,4.65,4.65,0,0,0,.57-2.67,7.163,7.163,0,0,0-.15-1.6,2.776,2.776,0,0,0-.44-1.03,1.635,1.635,0,0,0-.72-.56,2.679,2.679,0,0,0-.99-.17,2.018,2.018,0,0,0-1.72.74A4.513,4.513,0,0,0-3.443-5.24ZM9.023.64a1.66,1.66,0,0,0,.74.85,3.2,3.2,0,0,0,1.38.23,2.073,2.073,0,0,0,1.51-.5,2.133,2.133,0,0,0,.51-1.58v-.92a4.328,4.328,0,0,1-1.27.72,4.475,4.475,0,0,1-1.55.26,5.014,5.014,0,0,1-1.86-.34,4.4,4.4,0,0,1-1.51-.99,4.577,4.577,0,0,1-1.02-1.6,5.947,5.947,0,0,1-.37-2.17,6.557,6.557,0,0,1,.36-2.25,4.788,4.788,0,0,1,1-1.67,4.2,4.2,0,0,1,1.51-1.03,5.072,5.072,0,0,1,1.91-.35,4.308,4.308,0,0,1,1.67.32,3.858,3.858,0,0,1,1.35.94l.54-.96h2.36V-.56a4.717,4.717,0,0,1-.35,1.85,3.782,3.782,0,0,1-1.02,1.41,4.618,4.618,0,0,1-1.64.89,7.18,7.18,0,0,1-2.19.31,6.6,6.6,0,0,1-3.74-.87A3.443,3.443,0,0,1,5.843.64Zm-.3-6.06a2.984,2.984,0,0,0,.67,2.16,2.323,2.323,0,0,0,1.73.68,2.157,2.157,0,0,0,1.73-.71,3.2,3.2,0,0,0,.61-2.13,3.412,3.412,0,0,0-.63-2.28,2.156,2.156,0,0,0-1.71-.72,2.213,2.213,0,0,0-1.73.75A3.288,3.288,0,0,0,8.723-5.42ZM21.449,0h-3.12V-14.4h3.12ZM33.715-3.02a4.615,4.615,0,0,1-.56,1.33,3.6,3.6,0,0,1-1.01,1.05,4.991,4.991,0,0,1-1.52.69,7.6,7.6,0,0,1-2.05.25,6.44,6.44,0,0,1-2.23-.37,4.759,4.759,0,0,1-1.73-1.08A4.911,4.911,0,0,1,23.5-2.88a6.316,6.316,0,0,1-.4-2.32,6.761,6.761,0,0,1,.38-2.35,4.647,4.647,0,0,1,1.09-1.73,4.649,4.649,0,0,1,1.7-1.06,6.43,6.43,0,0,1,2.21-.36,6.265,6.265,0,0,1,2.24.38,4.221,4.221,0,0,1,1.69,1.16,5.311,5.311,0,0,1,1.06,1.96,9.251,9.251,0,0,1,.37,2.76h-7.58a3.058,3.058,0,0,0,.81,1.97,2.389,2.389,0,0,0,1.67.59,2.109,2.109,0,0,0,1.2-.31,1.419,1.419,0,0,0,.6-.83Zm-5.3-5.72a1.956,1.956,0,0,0-1.46.57,3.16,3.16,0,0,0-.7,1.91h4.38A2.8,2.8,0,0,0,30-8.16,2.135,2.135,0,0,0,28.415-8.74Z" transform="translate(1206.588 890.2)" fill="#333"/>
      </g>
    </g>
  </g>
</svg>
